<svg width="32" height="32" viewBox="0 0 32 32" fill="none" xmlns="http://www.w3.org/2000/svg">
<path d="M16 2.66666C13.3629 2.66666 10.7851 3.44864 8.59242 4.91373C6.39977 6.37881 4.6908 8.46119 3.68163 10.8975C2.67246 13.3339 2.40842 16.0148 2.92289 18.6012C3.43736 21.1876 4.70724 23.5634 6.57194 25.4281C8.43664 27.2928 10.8124 28.5627 13.3988 29.0771C15.9852 29.5916 18.6661 29.3276 21.1025 28.3184C23.5388 27.3092 25.6212 25.6002 27.0863 23.4076C28.5514 21.2149 29.3334 18.6371 29.3334 16C29.3334 14.249 28.9885 12.5152 28.3184 10.8975C27.6484 9.27987 26.6662 7.81001 25.4281 6.5719C24.19 5.33378 22.7201 4.35166 21.1025 3.6816C19.4848 3.01153 17.751 2.66666 16 2.66666ZM17.3334 21.3333C17.3334 21.6869 17.1929 22.0261 16.9428 22.2761C16.6928 22.5262 16.3536 22.6667 16 22.6667C15.6464 22.6667 15.3073 22.5262 15.0572 22.2761C14.8072 22.0261 14.6667 21.6869 14.6667 21.3333V14.6667C14.6667 14.313 14.8072 13.9739 15.0572 13.7238C15.3073 13.4738 15.6464 13.3333 16 13.3333C16.3536 13.3333 16.6928 13.4738 16.9428 13.7238C17.1929 13.9739 17.3334 14.313 17.3334 14.6667V21.3333ZM16 12C15.7363 12 15.4785 11.9218 15.2593 11.7753C15.04 11.6288 14.8691 11.4205 14.7682 11.1769C14.6673 10.9333 14.6409 10.6652 14.6923 10.4065C14.7438 10.1479 14.8707 9.91032 15.0572 9.72385C15.2437 9.53738 15.4813 9.41039 15.7399 9.35894C15.9985 9.3075 16.2666 9.3339 16.5103 9.43482C16.7539 9.53573 16.9621 9.70663 17.1087 9.9259C17.2552 10.1452 17.3334 10.4029 17.3334 10.6667C17.3334 11.0203 17.1929 11.3594 16.9428 11.6095C16.6928 11.8595 16.3536 12 16 12Z" fill="white"/>
</svg>
