<svg viewBox="0 0 48 48" fill="none" xmlns="http://www.w3.org/2000/svg">
    <path d="M24 42C33.9411 42 42 33.9411 42 24C42 14.0589 33.9411 6 24 6C14.0589 6 6 14.0589 6 24C6 33.9411 14.0589 42 24 42Z" stroke="black" stroke-width="1.5" stroke-linecap="round" stroke-linejoin="round"/>
    <path d="M30.93 28C30.2277 29.2164 29.2175 30.2265 28.001 30.9287C26.7845 31.6308 25.4046 32.0003 24 32C22.5954 32.0003 21.2155 31.6308 19.999 30.9287C18.7825 30.2265 17.7723 29.2164 17.07 28M28 20L30 18L32 20M20 20L18 18L16 20" stroke="black" stroke-width="1.5" stroke-linecap="round" stroke-linejoin="round"/>
</svg>