<svg width="38" height="38" viewBox="0 0 38 38" fill="none" xmlns="http://www.w3.org/2000/svg">
<path d="M18.75 36.75C28.6911 36.75 36.75 28.6911 36.75 18.75C36.75 8.80887 28.6911 0.75 18.75 0.75C8.80887 0.75 0.75 8.80887 0.75 18.75C0.75 28.6911 8.80887 36.75 18.75 36.75Z" stroke="white" stroke-width="1.5" stroke-linecap="round" stroke-linejoin="round"/>
<path d="M25.68 22.75C24.9777 23.9664 23.9675 24.9765 22.751 25.6787C21.5345 26.3808 20.1546 26.7503 18.75 26.75C17.3454 26.7503 15.9655 26.3808 14.749 25.6787C13.5325 24.9765 12.5223 23.9664 11.82 22.75M22.75 14.75L24.75 12.75L26.75 14.75M14.75 14.75L12.75 12.75L10.75 14.75" stroke="white" stroke-width="1.5" stroke-linecap="round" stroke-linejoin="round"/>
</svg>
