<svg viewBox="0 0 120 72" fill="none" xmlns="http://www.w3.org/2000/svg">
    <g clip-path="url(#clip0_40_2)">
        <path d="M23.642 17.0909H34.0909L42.9545 38.7045H43.3636L52.2273 17.0909H62.6761V52H54.4602V30.5568H54.1705L45.7841 51.7784H40.5341L32.1477 30.4375H31.858V52H23.642V17.0909ZM67.9389 52V17.0909H82.3594C84.973 17.0909 87.2287 17.5625 89.1264 18.5057C91.0355 19.4375 92.5071 20.7784 93.5412 22.5284C94.5753 24.267 95.0923 26.3295 95.0923 28.7159C95.0923 31.1364 94.5639 33.1932 93.5071 34.8864C92.4503 36.5682 90.9503 37.8523 89.0071 38.7386C87.0639 39.6136 84.7628 40.0511 82.1037 40.0511H72.9844V33.4034H80.5355C81.8082 33.4034 82.8707 33.2386 83.723 32.9091C84.5866 32.5682 85.2401 32.0568 85.6832 31.375C86.1264 30.6818 86.348 29.7955 86.348 28.7159C86.348 27.6364 86.1264 26.7443 85.6832 26.0398C85.2401 25.3239 84.5866 24.7898 83.723 24.4375C82.8594 24.0739 81.7969 23.892 80.5355 23.892H76.3764V52H67.9389ZM87.5923 36.0455L96.2855 52H87.081L78.5582 36.0455H87.5923Z" fill="black"/>
    </g>
    <rect x="2" y="2" width="116" height="68" rx="34" stroke="black" stroke-width="4"/>
    <defs>
        <clipPath id="clip0_40_2">
        <rect width="120" height="72" rx="36" fill="white"/>
        </clipPath>
    </defs>
</svg>